<?xml version="1.0" encoding="iso-8859-1"?>
<!-- Generator: Adobe Illustrator 19.0.0, SVG Export Plug-In . SVG Version: 6.00 Build 0)  -->
<svg version="1.1" id="Layer_1" xmlns="http://www.w3.org/2000/svg" xmlns:xlink="http://www.w3.org/1999/xlink" x="0px" y="0px"
	 viewBox="0 0 330 330" style="enable-background:new 0 0 330 330;" xml:space="preserve">
<g>
	<g>
		<g>
			<path d="M315,90h-15.872c0.555-1.566,0.872-3.244,0.872-5c0-8.284-6.716-15-15-15h-30c-8.284,0-15,6.716-15,15
				c0,1.756,0.317,3.434,0.872,5H210V45c0-8.284-6.716-15-15-15h-60c-8.284,0-15,6.716-15,15v45H89.128
				C89.683,88.434,90,86.756,90,85c0-8.284-6.716-15-15-15H45c-8.284,0-15,6.716-15,15c0,1.756,0.317,3.434,0.872,5H15
				c-8.284,0-15,6.716-15,15v180c0,8.284,6.716,15,15,15h300c8.284,0,15-6.716,15-15V105C330,96.716,323.284,90,315,90z M150,60h30
				v30h-30V60z M300,270H30V120h105h60h105V270z"/>
			<path d="M105.006,149.916C80.189,149.916,60,170.105,60,194.922c0,24.809,20.189,44.994,45.006,44.994
				c24.81,0,44.994-20.185,44.994-44.994C150,170.105,129.815,149.916,105.006,149.916z M105.006,209.916
				c-8.274,0-15.006-6.727-15.006-14.994c0-8.274,6.731-15.006,15.006-15.006c8.268,0,14.994,6.732,14.994,15.006
				C120,203.189,113.273,209.916,105.006,209.916z"/>
			<path d="M180,194.922c0,24.809,20.189,44.994,45.006,44.994c24.809,0,44.994-20.185,44.994-44.994
				c0-24.816-20.185-45.006-44.994-45.006C200.189,149.916,180,170.105,180,194.922z M225.006,179.916
				c8.268,0,14.994,6.732,14.994,15.006c0,8.268-6.727,14.994-14.994,14.994c-8.275,0-15.006-6.727-15.006-14.994
				C210,186.648,216.731,179.916,225.006,179.916z"/>
		</g>
	</g>
</g>
<g>
</g>
<g>
</g>
<g>
</g>
<g>
</g>
<g>
</g>
<g>
</g>
<g>
</g>
<g>
</g>
<g>
</g>
<g>
</g>
<g>
</g>
<g>
</g>
<g>
</g>
<g>
</g>
<g>
</g>
</svg>
